<?xml version="1.0" encoding="UTF-8" standalone="no"?>
<!-- Created with Inkscape (http://www.inkscape.org/) -->

<svg
   width="800"
   height="600"
   viewBox="0 0 211.66666 158.75"
   version="1.1"
   id="svg5"
   inkscape:version="1.1.2 (0a00cf5339, 2022-02-04)"
   sodipodi:docname="notes.svg"
   inkscape:export-filename="/home/muldjord/programming/ezmarket/graphics/soundbutton_pressed.png"
   inkscape:export-xdpi="60"
   inkscape:export-ydpi="60"
   xmlns:inkscape="http://www.inkscape.org/namespaces/inkscape"
   xmlns:sodipodi="http://sodipodi.sourceforge.net/DTD/sodipodi-0.dtd"
   xmlns:xlink="http://www.w3.org/1999/xlink"
   xmlns="http://www.w3.org/2000/svg"
   xmlns:svg="http://www.w3.org/2000/svg">
  <sodipodi:namedview
     id="namedview7"
     pagecolor="#ffffff"
     bordercolor="#666666"
     borderopacity="1.0"
     inkscape:pageshadow="2"
     inkscape:pageopacity="0.0"
     inkscape:pagecheckerboard="0"
     inkscape:document-units="mm"
     showgrid="true"
     units="px"
     width="800px"
     inkscape:snap-bbox="true"
     inkscape:snap-global="true"
     inkscape:zoom="0.90583672"
     inkscape:cx="314.07426"
     inkscape:cy="371.47975"
     inkscape:window-width="1846"
     inkscape:window-height="1136"
     inkscape:window-x="74"
     inkscape:window-y="27"
     inkscape:window-maximized="1"
     inkscape:current-layer="layer1">
    <inkscape:grid
       type="xygrid"
       id="grid905" />
  </sodipodi:namedview>
  <defs
     id="defs2">
    <linearGradient
       inkscape:collect="always"
       id="linearGradient2944">
      <stop
         style="stop-color:#c0cbcc;stop-opacity:1;"
         offset="0"
         id="stop2940" />
      <stop
         style="stop-color:#c0cbcc;stop-opacity:0;"
         offset="1"
         id="stop2942" />
    </linearGradient>
    <linearGradient
       inkscape:collect="always"
       id="linearGradient1187">
      <stop
         style="stop-color:#7f9597;stop-opacity:0.52156866"
         offset="0"
         id="stop1183" />
      <stop
         style="stop-color:#d9e0e0;stop-opacity:0.52156866"
         offset="1"
         id="stop1185" />
    </linearGradient>
    <linearGradient
       inkscape:collect="always"
       xlink:href="#linearGradient1187"
       id="linearGradient1189"
       x1="13.568376"
       y1="13.685345"
       x2="198.09828"
       y2="147.80173"
       gradientUnits="userSpaceOnUse"
       gradientTransform="matrix(0.97500005,0,0,0.96666667,2.6458333,2.6458333)" />
    <linearGradient
       inkscape:collect="always"
       xlink:href="#linearGradient2944"
       id="linearGradient2946"
       x1="108.47916"
       y1="206.375"
       x2="108.47916"
       y2="13.229167"
       gradientUnits="userSpaceOnUse" />
  </defs>
  <g
     inkscape:label="Layer 1"
     inkscape:groupmode="layer"
     id="layer1">
    <rect
       style="fill:url(#linearGradient2946);fill-opacity:1;stroke:url(#linearGradient1189);stroke-width:5.13727;stroke-linecap:round;stroke-linejoin:round;stroke-miterlimit:4;stroke-dasharray:none;stroke-opacity:0.988235;paint-order:fill markers stroke;stop-color:#000000"
       id="rect1013"
       width="206.375"
       height="153.45834"
       x="2.6458333"
       y="2.6458333"
       ry="10.230556"
       inkscape:export-filename="/home/muldjord/programming/ezmarket/graphics/soundbutton_pressed.png"
       inkscape:export-xdpi="60"
       inkscape:export-ydpi="60" />
    <path
       id="path907"
       style="fill:#c0cbcc;fill-opacity:0.520821;stroke:none;stroke-width:0.337543px;stroke-linecap:butt;stroke-linejoin:miter;stroke-opacity:1"
       d="m 202.54254,27.372406 -87.76125,13.501729 v 82.026295 a 16.877161,20.252594 70.310096 0 0 -18.768583,-1.63892 16.877161,20.252594 70.310096 0 0 -13.381755,22.71428 16.877161,20.252594 70.310096 0 0 24.754718,9.0662 16.877161,20.252594 70.310096 0 0 14.14649,-19.2604 V 61.126728 L 195.79167,47.625 v 62.68745 a 16.877161,20.252594 70.310096 0 0 -18.83385,-1.68508 16.877161,20.252594 70.310096 0 0 -13.38176,22.71428 16.877161,20.252594 70.310096 0 0 24.75472,9.06619 16.877161,20.252594 70.310096 0 0 14.19659,-18.52333 h 0.0152 z" />
    <path
       id="path907-5"
       style="fill:#c0cbcc;fill-opacity:0.253933;stroke:none;stroke-width:0.23601px;stroke-linecap:butt;stroke-linejoin:miter;stroke-opacity:1"
       d="M 107.90771,22.881045 46.545008,32.32146 v 57.352827 a 11.800518,14.160622 70.310096 0 0 -13.123003,-1.145936 11.800518,14.160622 70.310096 0 0 -9.356529,15.881829 11.800518,14.160622 70.310096 0 0 17.308499,6.33909 11.800518,14.160622 70.310096 0 0 9.891233,-13.466873 V 46.482081 L 103.1875,37.041667 v 43.831092 a 11.800518,14.160622 70.310096 0 0 -13.168635,-1.178201 11.800518,14.160622 70.310096 0 0 -9.35655,15.881827 11.800518,14.160622 70.310096 0 0 17.30853,6.339085 11.800518,14.160622 70.310096 0 0 9.926245,-12.951515 h 0.0103 z" />
  </g>
</svg>
