<?xml version="1.0" encoding="UTF-8" standalone="no"?>
<!-- Created with Inkscape (http://www.inkscape.org/) -->

<svg
   width="800"
   height="1024"
   viewBox="0 0 211.66666 270.93334"
   version="1.1"
   id="svg5"
   inkscape:export-filename="/home/muldjord/programming/ezmarket/graphics/checkout_background.png"
   inkscape:export-xdpi="96"
   inkscape:export-ydpi="96"
   inkscape:version="1.1.2 (0a00cf5339, 2022-02-04)"
   sodipodi:docname="receipt.svg"
   xmlns:inkscape="http://www.inkscape.org/namespaces/inkscape"
   xmlns:sodipodi="http://sodipodi.sourceforge.net/DTD/sodipodi-0.dtd"
   xmlns:xlink="http://www.w3.org/1999/xlink"
   xmlns="http://www.w3.org/2000/svg"
   xmlns:svg="http://www.w3.org/2000/svg">
  <sodipodi:namedview
     id="namedview7"
     pagecolor="#ffffff"
     bordercolor="#666666"
     borderopacity="1.0"
     inkscape:pageshadow="2"
     inkscape:pageopacity="0.0"
     inkscape:pagecheckerboard="0"
     inkscape:document-units="mm"
     showgrid="true"
     units="px"
     width="800px"
     inkscape:snap-bbox="true"
     inkscape:snap-page="true"
     inkscape:snap-bbox-midpoints="true"
     inkscape:snap-bbox-edge-midpoints="true"
     inkscape:bbox-nodes="true"
     inkscape:bbox-paths="true"
     inkscape:snap-global="true"
     inkscape:zoom="0.77771465"
     inkscape:cx="382.53105"
     inkscape:cy="534.25765"
     inkscape:window-width="2486"
     inkscape:window-height="1376"
     inkscape:window-x="74"
     inkscape:window-y="27"
     inkscape:window-maximized="1"
     inkscape:current-layer="layer1">
    <inkscape:grid
       type="xygrid"
       id="grid927" />
  </sodipodi:namedview>
  <defs
     id="defs2">
    <linearGradient
       inkscape:collect="always"
       id="linearGradient4149">
      <stop
         style="stop-color:#6fbff0;stop-opacity:1;"
         offset="0"
         id="stop4145" />
      <stop
         style="stop-color:#6fbff0;stop-opacity:0;"
         offset="1"
         id="stop4147" />
    </linearGradient>
    <linearGradient
       inkscape:collect="always"
       xlink:href="#linearGradient4149"
       id="linearGradient4151"
       x1="92.98027"
       y1="2.8448088"
       x2="139.95139"
       y2="389.84357"
       gradientUnits="userSpaceOnUse" />
    <linearGradient
       inkscape:collect="always"
       xlink:href="#linearGradient4149"
       id="linearGradient4571"
       x1="92.986282"
       y1="-473.11362"
       x2="111.125"
       y2="248.70833"
       gradientUnits="userSpaceOnUse" />
  </defs>
  <g
     inkscape:label="Layer 1"
     inkscape:groupmode="layer"
     id="layer1">
    <g
       id="g3998"
       transform="translate(2.3019565,0.72013534)"
       style="opacity:0.53805353">
      <path
         style="fill:#fdfefe;stroke-width:0.352778"
         d="M 148.34113,35.312998 V 9.9129982 h 25.4 25.4 V 35.312998 60.712997 h -25.4 -25.4 z"
         id="path4014" />
      <path
         style="fill:#d6ecf9;stroke-width:0.352778"
         d="m 153.66922,58.229378 c -1.84147,-1.333948 -2.12084,-1.987945 -1.14208,-2.673498 0.70513,-0.493889 0.71828,-0.58928 0.21528,-1.561959 -0.62244,-1.203663 -0.43862,-2.256098 0.79816,-4.569812 0.77976,-1.45874 0.8292,-1.837708 0.6095,-4.672292 l -0.23909,-3.084791 1.18382,-1.202018 c 0.6511,-0.661109 1.42704,-1.654203 1.72431,-2.206875 0.41804,-0.777218 0.85759,-1.044817 1.94027,-1.181246 0.76989,-0.09701 1.88303,-0.441367 2.47365,-0.765228 0.59062,-0.323861 2.18508,-0.698336 3.54325,-0.832166 2.33645,-0.230228 2.52993,-0.192391 3.59379,0.702786 1.14586,0.964177 2.07051,3.321364 1.69091,4.310585 -0.11515,0.300081 0.23426,0.953524 0.8266,1.545865 2.00986,2.009863 1.72679,4.824594 -0.76544,7.611002 -0.66995,0.749032 -1.39426,1.698371 -1.60958,2.109643 -0.51969,0.992635 -2.49699,1.898068 -4.14504,1.898068 -1.16088,0 -1.56348,0.251453 -3.17492,1.982953 -1.70039,1.827082 -1.94687,1.971118 -3.13562,1.832335 -1.11697,-0.130397 -1.36867,-0.01774 -1.87491,0.839269 -0.32161,0.544438 -0.68544,0.989887 -0.80853,0.989887 -0.12308,0 -0.89003,-0.482628 -1.70433,-1.072508 z m 26.38675,0.365175 c -4.10178,-2.151917 -6.62735,-8.745513 -5.10518,-13.328322 0.83597,-2.516875 3.0102,-4.462275 5.58443,-4.996682 1.07007,-0.222147 2.38288,-0.294149 2.91735,-0.160004 l 0.97177,0.243898 -0.65517,-1.109112 c -0.36034,-0.610011 -0.84969,-1.109111 -1.08745,-1.109111 -0.68092,0 -0.89404,-0.62612 -0.47783,-1.40382 0.49988,-0.934025 2.46734,-1.009599 2.48585,-0.09549 0.007,0.339549 0.21719,0.986306 0.46737,1.437239 l 0.45486,0.819878 0.92383,-1.211205 c 0.50811,-0.666162 1.49237,-1.480991 2.18724,-1.810731 1.26281,-0.599242 4.85855,-0.940394 5.29833,-0.502686 0.28922,0.287863 -0.71981,2.327502 -1.6613,3.358118 l -0.70131,0.767695 1.40375,0.716141 c 2.97914,1.519842 4.13386,3.929589 3.89125,8.120519 -0.24566,4.243648 -2.31994,8.010726 -5.48967,9.969726 -1.12,0.692195 -1.82453,0.800188 -5.70797,0.874913 -3.76814,0.07251 -4.62006,-0.01432 -5.70015,-0.580968 z m 2.5046,-23.953536 c -0.67909,-0.352439 -1.90424,-0.743348 -2.72255,-0.868687 -1.94775,-0.298335 -3.27467,-0.920658 -3.27467,-1.535819 0,-0.765079 3.0089,-7.928777 4.26533,-10.15504 l 1.12421,-1.991998 -0.41053,-4.049329 c -0.22579,-2.22713 -0.31782,-4.199337 -0.2045,-4.382681 0.11331,-0.183345 0.49717,-0.333354 0.85301,-0.333354 0.66535,0 1.07526,0.656415 1.07526,1.721873 0,0.365509 0.46313,0.773305 1.16751,1.02801 1.64572,0.595102 2.98565,-0.06007 3.27911,-1.603355 0.15587,-0.819743 0.41108,-1.146528 0.89538,-1.146528 1.03295,0 1.14243,0.790206 0.66621,4.808524 l -0.43804,3.696098 2.04565,4.065735 c 1.13494,2.255713 2.65697,4.695666 3.41882,5.480709 1.09426,1.127561 1.32868,1.592327 1.15405,2.288109 -0.25124,1.001005 -2.5543,2.213758 -4.25119,2.238603 -0.58208,0.0085 -1.75036,0.329509 -2.59616,0.713303 -1.90306,0.863534 -4.41211,0.874251 -6.0469,0.02583 z m -31.45538,-0.990553 c -0.84488,-0.203583 -0.93971,-0.641537 -1.18287,-5.46294 l -0.21886,-4.339804 3.58221,-2.733208 c 2.88309,-2.199777 3.74848,-2.691479 4.43412,-2.519395 0.73498,0.18447 0.8519,0.08952 0.8519,-0.69188 0,-0.779027 0.45637,-1.15428 3.26319,-2.68314 2.61227,-1.422891 3.4743,-1.733777 4.32153,-1.558528 1.65833,0.343028 4.08708,1.689165 5.8148,3.222864 l 1.58148,1.403873 0.12258,5.072763 c 0.0928,3.842423 0.009,5.214888 -0.34675,5.658756 -0.32966,0.4116 -3.304,1.164776 -9.99433,2.530812 -10.62117,2.168634 -11.39325,2.301207 -12.229,2.099827 z"
         id="path4012" />
      <path
         style="fill:#afdbf5;stroke-width:0.352778"
         d="m 181.14946,59.034216 c -2.70898,-0.971384 -5.26901,-4.207108 -6.19822,-7.834182 -1.58066,-6.169893 1.65847,-10.948148 7.42161,-10.948148 2.26976,0 2.42157,-0.336253 0.82509,-1.827589 -0.89951,-0.840262 -1.05172,-1.170932 -0.7553,-1.640844 0.20417,-0.323681 0.7302,-0.588511 1.16896,-0.588511 0.60933,0 0.93396,0.348416 1.37455,1.475308 l 0.57682,1.475308 1.1986,-1.427661 c 1.44863,-1.72549 2.94952,-2.404899 5.31267,-2.404899 1.53918,0 1.77522,0.09368 1.77522,0.704539 0,0.387497 -0.55501,1.318869 -1.23335,2.069716 l -1.23336,1.365177 1.6711,0.859977 c 0.95218,0.490006 2.10587,1.478587 2.68171,2.297901 2.90335,4.130957 0.57283,12.690662 -4.21998,15.499429 -1.44882,0.849069 -1.98292,0.944855 -5.71753,1.025391 -2.26568,0.04886 -4.35755,0.0035 -4.64859,-0.100912 z m -3.40707,-11.712931 c 0.11489,-0.57447 0.76974,-1.665273 1.45521,-2.424007 1.46094,-1.61709 1.61447,-2.528725 0.42586,-2.528725 -1.4441,0 -3.06011,2.285424 -3.06011,4.327733 0,1.907328 0.83414,2.3495 1.17904,0.624999 z m -24.5052,10.183851 -1.54467,-1.443976 1.5875,1.153968 c 2.13197,1.549753 2.3317,1.73398 1.87981,1.73398 -0.20788,0 -1.07306,-0.649788 -1.92264,-1.443972 z m 6.02565,-0.891106 c 1.44099,-1.212504 2.2313,-2.715239 1.70487,-3.241679 -0.28488,-0.284875 -0.66779,-0.15634 -1.4201,0.476691 -0.94781,0.797529 -1.68148,1.1041 -1.68148,0.702621 0,-0.09026 0.49927,-0.732751 1.10949,-1.427752 1.23352,-1.404905 2.47814,-2.025053 6.12245,-3.050603 1.3582,-0.38221 2.62026,-0.84339 2.80459,-1.024841 0.4416,-0.434721 0.47185,-0.438224 -3.17523,0.368007 -4.09961,0.906265 -4.32152,0.904449 -3.47723,-0.02847 0.87562,-0.967539 2.10646,-1.573561 3.83147,-1.886465 1.52813,-0.277191 3.88806,-1.372774 4.26268,-1.978917 0.13046,-0.211092 -0.42525,-0.04584 -1.23491,0.367217 -0.80967,0.41306 -2.2947,0.828971 -3.30008,0.924242 l -1.82795,0.173214 0.8736,-0.633677 c 1.84526,-1.338473 3.24015,-2.718839 3.75654,-3.717439 0.77155,-1.492012 0.36159,-1.57943 -0.72515,-0.15463 -0.82725,1.084581 -3.27224,3.062003 -3.78602,3.062003 -0.36675,0 1.16565,-5.816114 1.83573,-6.967361 0.36703,-0.63059 0.51619,-1.146528 0.33146,-1.146528 -0.59364,0 -2.06403,2.594065 -2.44518,4.313789 -0.20332,0.917375 -0.62929,2.316803 -0.9466,3.10984 -0.82957,2.073318 -1.30601,1.285576 -1.33752,-2.21149 -0.022,-2.439205 0.10654,-3.143871 0.78178,-4.286461 1.0223,-1.729852 0.77929,-2.050379 -0.38504,-0.507876 -1.28278,1.699421 -1.63628,3.440055 -1.4095,6.940401 0.13419,2.071343 0.0622,3.350575 -0.21805,3.87422 -0.70523,1.317738 -1.0883,0.496394 -1.09395,-2.345605 -0.004,-1.882028 -0.11017,-2.551099 -0.34738,-2.18404 -0.18809,0.291042 -0.3444,1.352271 -0.34738,2.358284 -0.003,1.006016 -0.17648,2.276016 -0.38558,2.822222 l -0.38018,0.993105 -0.67815,-0.832831 c -0.37299,-0.458061 -0.68164,-1.172436 -0.6859,-1.5875 -0.004,-0.415067 -0.32176,-1.446692 -0.70556,-2.292498 -0.38379,-0.845808 -0.69676,-1.957058 -0.69548,-2.469446 0.003,-1.07013 0.96132,-2.668436 2.06358,-3.440488 0.41597,-0.29136 0.75632,-0.818805 0.75632,-1.1721 0,-0.930047 0.91125,-1.544672 1.98564,-1.339288 0.55141,0.105409 1.37976,-0.08239 2.0305,-0.460346 1.7819,-1.034946 5.27665,-1.580339 6.60384,-1.030599 1.44414,0.598181 2.42983,2.261411 2.43148,4.102821 0.001,1.164364 0.22259,1.693447 1.05965,2.530502 0.88964,0.88964 1.05833,1.335497 1.05833,2.797189 0,1.824367 -0.0409,1.901943 -3.0854,5.859422 -1.55475,2.020968 -2.84291,2.680282 -5.24509,2.684582 -0.88557,0.0014 -1.29145,0.280314 -2.09347,1.43763 -0.5472,0.789612 -1.43403,1.662737 -1.97073,1.940277 -1.44855,0.749071 -1.55006,0.615926 -0.31971,-0.41935 z m -6.66352,-3.841341 c -0.0137,-0.583625 0.37202,-1.806666 0.85709,-2.717867 0.48507,-0.9112 0.88194,-1.9815 0.88194,-2.378442 0,-0.396945 0.17642,-0.721716 0.39204,-0.721716 0.5167,0 0.0921,2.361011 -0.62457,3.473027 -0.29321,0.454956 -0.74653,1.407456 -1.00738,2.116666 l -0.47426,1.289474 -0.0249,-1.061142 z m 29.96125,-18.197175 c -0.87312,-0.397094 -2.37847,-0.872748 -3.34521,-1.057009 -2.86178,-0.545455 -2.90658,-0.724585 -1.23554,-4.940401 0.80052,-2.019628 2.08382,-4.823739 2.85177,-6.231358 1.39483,-2.556658 1.39588,-2.56159 1.01208,-4.765558 -0.53383,-3.065466 -0.33662,-6.041495 0.40975,-6.183248 0.40786,-0.07746 0.63964,0.236555 0.79811,1.081288 0.16579,0.883752 0.51426,1.328237 1.35257,1.725251 1.04069,0.492865 1.22014,0.481158 2.28868,-0.1493 0.78603,-0.463764 1.15946,-0.95022 1.15946,-1.510374 0,-0.968177 0.41459,-1.310206 1.21558,-1.002836 0.60509,0.232192 0.55774,2.075992 -0.16292,6.344605 -0.29754,1.762397 -0.25694,1.890455 1.94492,6.13555 1.23684,2.384572 2.82963,4.930407 3.53953,5.657411 1.1174,1.144315 1.23721,1.421836 0.89217,2.066534 -0.58902,1.100603 -1.74453,1.71821 -3.72511,1.991033 -0.97014,0.133635 -2.45876,0.542881 -3.30804,0.909435 -1.98112,0.85506 -3.69869,0.833612 -5.6878,-0.07102 z M 150.4942,32.911573 c -0.21937,-0.409903 -0.38918,-2.507439 -0.38918,-4.807328 0,-3.649909 0.0651,-4.080343 0.61736,-4.082103 1.51085,-0.0048 3.26319,-0.750167 3.26319,-1.387983 0,-1.095848 2.18361,-1.527619 2.73577,-0.540953 0.26584,0.475032 0.71186,0.43979 3.78216,-0.298845 2.92068,-0.702642 3.52932,-0.968634 3.7825,-1.653064 0.4215,-1.139423 1.3246,-1.737271 2.64415,-1.750413 0.72979,-0.0073 1.29783,0.233349 1.61294,0.683229 0.40772,0.582103 0.68204,0.644713 1.6957,0.387015 0.6651,-0.169088 1.64585,-0.405239 2.17942,-0.52478 L 173.38835,18.719 v 5.129562 c 0,4.98716 -0.022,5.138669 -0.79375,5.457614 -1.00914,0.417073 -17.58032,3.843344 -19.94002,4.122815 -1.54718,0.183241 -1.82042,0.117798 -2.16038,-0.517418 z M 164.25292,16.2932 c -0.74815,-0.473724 -0.18078,-1.441313 0.84515,-1.441313 1.02593,0 1.59331,0.967589 0.84516,1.441313 -0.27081,0.171474 -0.65113,0.311772 -0.84516,0.311772 -0.19402,0 -0.57434,-0.140298 -0.84515,-0.311772 z"
         id="path4010" />
      <path
         style="fill:#95cff3;stroke-width:0.352778"
         d="m 180.79668,58.740938 c -4.03463,-1.742744 -6.86391,-7.527315 -5.98415,-12.234845 0.70389,-3.76645 3.26311,-5.938506 7.2999,-6.195549 1.21662,-0.07747 2.21203,-0.29332 2.21203,-0.479669 0,-0.18635 -0.49536,-0.834183 -1.10081,-1.439629 -1.18053,-1.180527 -1.07849,-2.098982 0.2549,-2.294456 0.50082,-0.07342 0.83389,0.304373 1.32183,1.499306 0.35877,0.878601 0.75564,1.591342 0.88195,1.583868 0.12629,-0.0075 0.54713,-0.523411 0.93519,-1.146528 0.94278,-1.513859 3.40114,-2.720438 5.5428,-2.720438 0.94419,0 1.68914,0.16331 1.68914,0.370296 0,0.626183 -0.9465,2.241366 -1.72777,2.948407 -0.97364,0.881138 -0.93584,1.142186 0.20695,1.429009 1.49731,0.375801 2.88147,1.537176 3.73196,3.131302 0.63736,1.194622 0.78188,2.030665 0.77241,4.468208 -0.0151,3.878248 -1.15584,6.578342 -3.85967,9.135515 -2.06675,1.95465 -3.88733,2.639579 -5.83429,2.194952 -0.6833,-0.156044 -1.55642,-0.161019 -1.94028,-0.01104 -1.12721,0.440376 -3.07439,0.334793 -4.40209,-0.238697 z m -2.89331,-11.546127 c 0.23289,-0.644032 0.99511,-1.838851 1.69384,-2.655151 1.04084,-1.21599 1.19244,-1.578121 0.83897,-2.004034 -0.58248,-0.701846 -1.13735,-0.654269 -2.21002,0.189498 -1.1305,0.889249 -2.17716,3.537739 -1.87456,4.743407 0.31352,1.249165 1.04793,1.119621 1.55177,-0.27372 z m -18.56764,9.625996 c 0.32322,-0.18863 1.08642,-1.153541 1.69601,-2.14425 0.68982,-1.1211 1.50032,-1.949246 2.14637,-2.1931 1.24336,-0.469318 1.31219,-0.778527 0.24427,-1.097396 -0.77177,-0.230442 -0.77421,-0.245689 -0.0882,-0.550619 0.38805,-0.172487 1.61836,-0.565034 2.73402,-0.872328 1.18055,-0.325166 2.02848,-0.756052 2.02848,-1.030799 0,-0.391375 -0.3468,-0.395633 -2.02848,-0.02491 -1.11566,0.245957 -2.66347,0.553353 -3.43958,0.683105 l -1.41111,0.235913 0.71639,-0.731372 c 0.39402,-0.402255 1.88859,-1.056202 3.32127,-1.453219 2.46356,-0.682688 4.86646,-1.954826 4.46005,-2.361233 -0.10228,-0.102279 -0.94486,0.132705 -1.87239,0.522189 -0.92754,0.389502 -2.32143,0.797479 -3.09754,0.906639 l -1.41111,0.198465 0.86736,-0.593975 c 1.88199,-1.288795 2.89845,-2.330435 3.58244,-3.671152 0.39308,-0.770507 0.63747,-1.478142 0.54309,-1.572522 -0.0944,-0.09438 -1.13733,0.794128 -2.31766,1.974464 -1.18034,1.180335 -2.27927,2.146064 -2.44208,2.146064 -0.52012,0 0.92436,-5.719486 1.71433,-6.78798 1.02663,-1.388587 0.58411,-1.686451 -0.69081,-0.464996 -1.12851,1.081179 -1.35738,1.582205 -2.50746,5.489087 -0.90686,3.080678 -1.32939,2.743338 -1.37025,-1.093985 -0.0196,-1.841339 0.16068,-2.677544 0.86144,-3.995491 0.48743,-0.916731 0.80821,-1.793037 0.71284,-1.947347 -0.19262,-0.311671 2.16834,-0.804064 3.97771,-0.829574 1.88494,-0.02657 3.3148,1.664909 3.52227,4.16673 0.10488,1.264724 0.34665,2.062867 0.66145,2.183668 0.71837,0.275663 1.52838,2.012108 1.52838,3.276423 0,1.290857 -1.02276,3.424302 -2.11524,4.412355 -0.42857,0.387597 -1.00378,1.138971 -1.27824,1.669722 -0.63178,1.221743 -2.15838,2.015772 -4.38177,2.279099 -1.47284,0.174438 -1.88763,0.401814 -2.70071,1.480439 -1.07199,1.4221 -1.8722,2.133611 -2.40043,2.134348 -0.19403,2.72e-4 -0.0883,-0.153839 0.23488,-0.342466 z m -1.11682,-2.43224 c 0,-0.563326 2.02593,-2.70334 2.29988,-2.42939 0.13284,0.132842 0.002,0.583843 -0.29129,1.002231 -0.67767,0.96751 -2.00859,1.913166 -2.00859,1.427159 z m -5.60305,-1.61307 c -0.0106,-0.388055 0.45201,-1.654012 1.02801,-2.81324 0.57599,-1.159228 1.04726,-1.906965 1.04726,-1.66164 0,0.245325 -0.34144,1.114408 -0.75876,1.931296 -0.41732,0.816889 -0.87993,1.882126 -1.02801,2.367195 -0.21675,0.709976 -0.27301,0.744369 -0.2885,0.176389 z m 2.93452,-4.964475 c -0.13418,-0.568011 -0.55922,-1.783377 -0.94454,-2.70081 -0.86128,-2.050678 -0.64239,-3.142872 0.94879,-4.734049 0.64608,-0.646079 1.27209,-1.562766 1.39114,-2.037081 0.25617,-1.02068 1.32023,-1.450617 2.29674,-0.928007 0.45962,0.245981 0.77162,0.253293 0.91491,0.02144 0.1196,-0.19351 0.52718,-0.517596 0.90573,-0.720193 0.51912,-0.277821 0.4059,0.03291 -0.46062,1.264242 -1.13988,1.619787 -1.1489,1.665339 -1.1489,5.804635 0,3.786393 -0.19725,5.03408 -0.71414,4.517194 -0.10174,-0.101734 -0.28302,-1.234888 -0.40285,-2.518117 -0.24222,-2.593884 -0.62458,-2.791442 -0.96817,-0.500229 -0.12447,0.82998 -0.52956,1.971358 -0.90022,2.536388 l -0.67392,1.027331 z m 27.01019,-13.379969 c -1.06715,-0.469485 -2.38472,-0.859984 -2.92793,-0.867777 -0.84968,-0.01219 -3.06929,-0.879706 -3.06929,-1.199607 0,-0.384359 3.01499,-7.409058 4.07961,-9.505174 l 1.28933,-2.538553 h 3.48595 3.48595 l 1.79224,3.605806 c 0.98574,1.983193 2.50429,4.397767 3.37456,5.365722 1.35309,1.504957 1.5268,1.863649 1.1991,2.475959 -0.50775,0.948754 -1.92255,1.634753 -3.99293,1.936075 -0.9297,0.135307 -2.35845,0.54931 -3.175,0.920006 -1.95006,0.885282 -3.18972,0.842229 -5.54159,-0.192457 z m -26.78225,-4.551346 c -0.92771,-1.117813 0.44782,-2.664252 1.88072,-2.114399 0.42221,0.162017 0.56636,0.553034 0.49067,1.330916 -0.0864,0.887923 -0.28405,1.122055 -1.01933,1.207526 -0.50168,0.05832 -1.11011,-0.132503 -1.35206,-0.424043 z m 4.5468,-2.283996 c -1.15933,-1.159338 -1.18166,-1.801629 -0.12107,-3.483408 0.66823,-1.059613 2.98963,-1.110643 4.01208,-0.08819 1.47523,1.475229 0.52198,4.028179 -1.66156,4.44993 -0.95147,0.183776 -1.30767,0.04344 -2.22945,-0.878328 z m 8.90727,0.111776 c -1.0459,-0.732577 -0.98815,-1.706853 0.15445,-2.60562 1.80975,-1.423549 3.90128,0.390787 2.50221,2.170583 -0.67774,0.862161 -1.78742,1.043875 -2.65666,0.435037 z m -17.37818,-0.702472 c -0.37492,-0.451757 -0.35176,-0.648976 0.1332,-1.133929 0.54755,-0.547557 0.62655,-0.547557 1.17411,0 0.48495,0.484953 0.50812,0.682172 0.13319,1.133929 -0.24962,0.300779 -0.57373,0.546872 -0.72025,0.546872 -0.14651,0 -0.47062,-0.246093 -0.72025,-0.546872 z m 2.25721,-3.867343 c -0.26395,-0.687862 0.48023,-1.583007 1.31605,-1.583007 0.85567,0 1.49251,1.157813 0.94048,1.709844 -0.58264,0.582638 -2.01517,0.502116 -2.25653,-0.126837 z m 10.72207,-1.596739 c -0.33955,-0.205758 -0.61736,-0.672195 -0.61736,-1.036527 0,-0.842702 1.60996,-2.124741 2.66821,-2.124741 0.88124,0 1.9179,0.842135 1.9179,1.558022 0,1.218154 -2.76259,2.33415 -3.96875,1.603246 z m 17.24146,-2.896685 c -0.11832,-0.436562 -0.32017,-2.118563 -0.44855,-3.737779 -0.18182,-2.293245 -0.12759,-3.009436 0.24534,-3.239917 0.66591,-0.411557 1.04161,-0.09478 1.04161,0.878253 0,0.56642 0.3788,1.049778 1.20448,1.536941 1.14827,0.677492 1.26238,0.683235 2.44472,0.123041 0.95168,-0.450908 1.2665,-0.833849 1.35316,-1.645956 0.0699,-0.655366 0.3144,-1.058333 0.64209,-1.058333 0.43016,0 0.52608,0.561042 0.51269,2.998611 -0.009,1.649236 -0.13115,3.435174 -0.27131,3.96875 -0.25379,0.966206 -0.2675,0.970139 -3.38196,0.970139 -2.94403,0 -3.13973,-0.04648 -3.34227,-0.79375 z M 164.0507,15.927946 c -0.26973,-0.436423 0.57165,-0.836551 1.39818,-0.664923 0.31262,0.06492 0.56496,0.276781 0.56074,0.470808 -0.0106,0.489658 -1.67438,0.654522 -1.95892,0.194115 z"
         id="path4008" />
      <path
         style="fill:#78c2f0;stroke-width:0.352778"
         d="m 180.52773,58.576836 c -2.00774,-1.020269 -4.13128,-3.499756 -5.01095,-5.850876 -0.92393,-2.469419 -0.9507,-6.105408 -0.0594,-8.067377 1.31288,-2.889969 4.50381,-4.672154 7.71686,-4.309996 0.82664,0.09317 1.50299,0.04146 1.50299,-0.114916 0,-0.156379 -0.57053,-0.88926 -1.26784,-1.628625 -1.33809,-1.418794 -1.31369,-2.304428 0.0692,-2.509294 0.51044,-0.07562 0.84159,0.326399 1.39367,1.691913 l 0.72415,1.791103 0.86335,-1.323553 c 0.47485,-0.727953 1.38018,-1.623511 2.01187,-1.990129 1.17152,-0.679929 5.37787,-1.280233 5.37787,-0.767496 0,0.585731 -1.76741,3.26905 -2.2837,3.467171 -0.72119,0.276746 -0.68752,0.934348 0.0478,0.934348 1.17966,0 3.48689,1.709963 4.35631,3.228602 0.74525,1.301749 0.87354,1.961029 0.84768,4.35612 -0.0384,3.556278 -1.00817,6.192396 -3.15748,8.582942 -2.04841,2.278327 -3.49315,2.941196 -6.26098,2.87263 -1.206,-0.02988 -2.90711,0.04825 -3.78023,0.173616 -1.24618,0.178933 -1.9108,0.06365 -3.09118,-0.536183 z m -2.57039,-11.393907 c 0.21471,-0.650565 0.79722,-1.563377 1.29448,-2.028472 1.65612,-1.549009 1.90751,-3.138682 0.49636,-3.138682 -1.59422,0 -3.53761,2.674654 -3.53761,4.86876 0,1.873169 1.16156,2.071593 1.74677,0.298394 z m -17.11918,8.012783 c 1.47564,-2.104214 1.72093,-2.318184 3.37797,-2.946637 2.13117,-0.808277 3.38744,-2.001982 4.53449,-4.308658 1.57786,-3.17303 1.4364,-5.624186 -0.44373,-7.688531 -0.44178,-0.485069 -1.01434,-1.416657 -1.27236,-2.070195 -0.25801,-0.653537 -0.95802,-1.486382 -1.55556,-1.850764 l -1.08645,-0.662514 1.45173,-0.0013 c 0.92291,-8.47e-4 1.78102,0.2577 2.35571,0.709753 1.02492,0.806198 1.80971,2.819793 1.57584,4.043214 -0.10966,0.57365 0.14132,1.102392 0.83326,1.755478 1.1774,1.111275 1.58648,2.872358 1.04696,4.507129 -0.50394,1.52695 -4.10715,5.87393 -5.21943,6.296819 -0.4704,0.178834 -1.42532,0.325163 -2.12205,0.325163 -1.07195,0 -1.53444,0.284826 -3.00732,1.852083 l -1.74055,1.852084 z m -1.8706,-1.873896 c 0.42338,-0.57265 0.99201,-1.126458 1.26361,-1.230683 0.58871,-0.225908 0.32126,0.326881 -0.71513,1.478114 -1.04102,1.156385 -1.44997,0.9719 -0.54848,-0.247431 z m -3.98892,-7.414828 c -1.11915,-2.883089 -0.90727,-4.470217 0.76148,-5.703977 0.55806,-0.412589 1.10783,-1.121422 1.22172,-1.575183 0.25728,-1.025104 1.51888,-1.783013 2.06272,-1.239181 0.26764,0.267646 0.21107,0.560602 -0.19487,1.009164 -1.24668,1.377563 -2.00625,3.747604 -2.01415,6.284566 -0.004,1.431812 -0.19517,2.73982 -0.44872,3.077495 -0.38204,0.508798 -0.56755,0.261179 -1.38818,-1.852884 z M 183.9694,34.983383 c -0.48632,-0.147934 -1.39125,-0.531163 -2.01095,-0.851622 -0.6197,-0.320459 -1.5078,-0.582652 -1.97355,-0.582652 -1.44058,0 -3.06877,-0.730628 -3.06877,-1.377068 0,-0.774532 2.17295,-6.165684 3.73675,-9.27097 l 1.21101,-2.40474 h 3.50884 3.50885 l 1.94354,3.799586 c 1.10481,2.159886 2.5689,4.431206 3.39266,5.263204 1.41707,1.431228 1.43632,1.483181 0.86991,2.347629 -0.59902,0.914215 -2.16934,1.642359 -3.54192,1.642359 -0.43302,0 -1.8417,0.396875 -3.13042,0.881944 -2.45688,0.924771 -2.99982,0.992221 -4.44595,0.55233 z m -28.21994,-6.020896 c 0,-0.779868 0.6571,-1.190455 1.59953,-0.999464 0.44837,0.09086 0.33131,0.303156 -0.50855,0.922341 -1.07685,0.793899 -1.09098,0.794897 -1.09098,0.07712 z m 4.3069,-1.651992 c -0.65259,-1.179467 -0.51278,-2.173681 0.43957,-3.126033 0.93971,-0.939714 1.93523,-1.090816 3.09553,-0.469845 0.69508,0.371999 0.65769,0.424378 -0.6154,0.862044 -1.41173,0.485332 -1.97954,1.132082 -2.30234,2.622448 l -0.19102,0.881944 z m -8.1596,-0.728747 c -0.0187,-0.533274 0.17474,-0.791977 0.58951,-0.788348 0.3808,0.0033 0.46866,0.104716 0.22928,0.264583 -0.21344,0.14255 -0.47872,0.497307 -0.58951,0.788348 -0.13459,0.353588 -0.21067,0.265798 -0.22928,-0.264583 z m 16.90548,-0.01489 c 0,-0.400655 0.24947,-0.977928 0.55437,-1.282828 0.62035,-0.620354 2.10952,-0.743172 2.44424,-0.201588 0.11992,0.194028 -0.0872,0.352778 -0.46024,0.352778 -0.37305,0 -1.09679,0.418523 -1.60832,0.930051 -0.87472,0.874716 -0.93005,0.88671 -0.93005,0.201587 z m -14.57215,-4.18058 c 0.22546,-0.587535 1.5027,-0.989401 1.89566,-0.596443 0.17182,0.171827 -0.21368,0.467681 -0.88192,0.676839 -0.93586,0.292918 -1.15046,0.275899 -1.01374,-0.0804 z m 10.33882,-2.193299 c 0,-1.113428 2.13722,-2.023238 3.27125,-1.392566 0.73859,0.410757 0.69278,0.450076 -0.76432,0.655916 -0.90356,0.127643 -1.74956,0.491864 -2.02847,0.873299 -0.45506,0.622325 -0.47846,0.61564 -0.47846,-0.136649 z m 17.51444,-1.818159 c -0.50594,-2.529742 -0.6796,-6.697933 -0.27905,-6.697933 0.22192,0 0.521,-0.03969 0.66461,-0.08819 0.14362,-0.04851 0.34206,0.374581 0.44098,0.940195 0.12079,0.690705 0.55679,1.238846 1.32779,1.669315 1.0822,0.604225 1.21856,0.607248 2.38125,0.0528 0.81646,-0.389345 1.23514,-0.834322 1.23871,-1.316537 0.008,-1.068932 0.45782,-1.625378 1.02881,-1.272484 0.38098,0.235456 0.43789,0.938835 0.2625,3.244572 -0.36302,4.772628 -0.16273,4.531445 -3.7632,4.531445 h -3.08976 z"
         id="path4006" />
      <path
         style="fill:#62b8ee;stroke-width:0.352778"
         d="m 181.68041,59.059164 c -3.50804,-0.972368 -6.88095,-6.182151 -6.88095,-10.628294 0,-5.027078 3.98337,-8.760043 8.5283,-7.992183 0.74221,0.125397 1.34948,0.113716 1.34948,-0.02596 0,-0.607578 -1.51421,-2.630287 -1.96905,-2.630287 -0.6585,0 -0.63529,-0.520267 0.054,-1.209524 0.65098,-0.650983 1.5623,-0.733099 1.5623,-0.140773 0,0.619566 1.19509,3.094621 1.49931,3.105085 0.14552,0.005 0.26458,-0.223732 0.26458,-0.508307 0,-0.962217 2.32803,-2.891001 3.99652,-3.31113 1.98022,-0.498626 3.41181,-0.520452 3.41181,-0.05202 0,0.194028 -0.13837,0.352778 -0.30749,0.352778 -0.16912,0 -1.95204,1.071563 -3.96204,2.38125 l -3.65455,2.38125 1.29499,0.108225 c 0.71225,0.05952 1.77291,-0.138913 2.35703,-0.440972 2.05948,-1.065004 4.01334,-0.505878 5.95332,1.70364 2.84898,3.244813 2.06672,9.975167 -1.63574,14.073344 -1.82715,2.022436 -3.53612,2.771069 -6.15085,2.694446 -1.20172,-0.03521 -2.81994,0.02565 -3.59605,0.135237 -0.77612,0.109598 -1.72782,0.111482 -2.11489,0.0042 z m -3.5189,-11.896446 c 0.25616,-0.745112 0.96874,-1.873705 1.58351,-2.507989 1.2494,-1.289058 1.29099,-2.402111 0.0961,-2.57291 -1.16926,-0.16714 -2.14084,0.513522 -2.92386,2.048364 -0.79294,1.554301 -0.92471,3.523701 -0.27896,4.169446 0.63904,0.63904 1.00709,0.364325 1.52319,-1.136911 z m -18.91097,6.013951 c 0.47038,-0.511686 0.92631,-0.930338 1.01317,-0.930338 0.34818,0 -0.90456,1.559486 -1.36944,1.704752 -0.27443,0.08576 -0.11411,-0.262731 0.35627,-0.774414 z m 2.78788,0.381473 c 0.25747,-0.312173 1.20997,-0.820244 2.11667,-1.129048 2.34495,-0.798643 3.40907,-1.80564 4.82047,-4.561699 1.2883,-2.515679 1.48797,-3.73657 0.87481,-5.349292 -0.35543,-0.934845 -0.34625,-0.943703 0.44097,-0.425606 0.44218,0.291009 1.00647,1.132123 1.25399,1.869141 0.56669,1.687403 0.1082,3.25846 -1.47889,5.06761 -0.61605,0.702243 -1.40299,1.726628 -1.74875,2.276411 -0.71239,1.132735 -2.49494,1.999005 -4.11342,1.999005 -0.60107,0 -1.43961,0.184739 -1.86342,0.410535 -0.68778,0.366433 -0.72027,0.34956 -0.30243,-0.157057 z m -6.90632,-7.621358 c -0.43656,-1.133669 -0.79375,-2.444346 -0.79375,-2.912617 0,-0.95765 0.82265,-2.28742 1.99219,-3.220282 0.43054,-0.343415 0.83312,-0.978415 0.89461,-1.411111 0.081,-0.569617 0.39021,-0.818555 1.12062,-0.902079 l 1.00882,-0.115359 -0.9137,1.197917 c -1.44374,1.892838 -2.07229,4.034255 -1.84931,6.300417 0.12674,1.288084 0.0447,2.175838 -0.23565,2.550139 -0.36915,0.492848 -0.54252,0.282198 -1.22383,-1.487025 z m 13.45517,-5.657608 c -0.40927,-0.500079 -1.07211,-1.554376 -1.47298,-2.342883 -0.40086,-0.788507 -1.09788,-1.611201 -1.54892,-1.828207 -0.77159,-0.371233 -0.74491,-0.39597 0.45133,-0.418435 2.18578,-0.04105 3.70414,1.930578 3.42889,4.452516 l -0.11418,1.046243 z m 13.78532,-5.980717 c -0.78249,-0.355446 -2.15857,-0.756615 -3.05796,-0.891486 -2.49896,-0.374743 -2.67868,-0.824239 -1.53409,-3.836872 0.53231,-1.40106 1.69096,-4.015818 2.57479,-5.810575 l 1.60696,-3.263195 h 3.44397 3.44396 l 2.00013,3.910231 c 1.11864,2.186935 2.60779,4.517892 3.37894,5.28904 l 1.37881,1.37881 -0.96751,1.070652 c -0.7454,0.824862 -1.42081,1.143152 -2.94204,1.386462 -1.08599,0.173696 -2.57382,0.566209 -3.30628,0.872252 -1.76259,0.736457 -4.26287,0.692713 -6.01968,-0.105319 z m 0.66449,-15.104772 c -0.83897,-0.164012 -0.99529,-0.724867 -1.39202,-4.994477 -0.22472,-2.41837 -0.19607,-2.584435 0.42548,-2.466428 0.41052,0.07794 0.70718,0.476099 0.77257,1.036872 0.0744,0.637963 0.47021,1.083956 1.32292,1.490582 1.12421,0.536098 1.30808,0.536691 2.41719,0.0078 0.83194,-0.396728 1.26238,-0.882266 1.40229,-1.581792 0.12556,-0.627827 0.4249,-1.009353 0.7919,-1.009353 0.5225,0 0.56361,0.333124 0.3592,2.910417 -0.29923,3.772701 -0.48642,4.390398 -1.40518,4.636872 -0.83036,0.222758 -3.4872,0.205502 -4.69435,-0.03049 z"
         id="path4004" />
      <path
         style="fill:#44acea;stroke-width:0.352778"
         d="m 181.50224,58.888138 c -1.2196,-0.371027 -1.19726,-0.383322 1.82405,-1.003646 8.69526,-1.785278 13.93986,-8.42712 11.27689,-14.281217 -0.92446,-2.032268 -1.49927,-2.412583 -3.01417,-1.994297 -0.68764,0.189865 -1.57159,0.261176 -1.96434,0.158469 -0.39275,-0.102706 -0.7141,-0.02756 -0.7141,0.166987 0,1.131588 -4.50188,1.932577 -6.1086,1.086862 -1.77676,-0.935213 -1.29647,-2.227576 0.6894,-1.855024 0.97754,0.183388 1.18587,0.114434 1.18587,-0.392513 0,-0.891432 -1.38226,-2.991317 -1.96905,-2.991317 -0.697,0 -0.62406,-0.484287 0.18293,-1.214605 0.88782,-0.803464 1.1172,-0.623114 1.95198,1.534698 0.38226,0.988115 0.77913,1.796145 0.88194,1.795621 0.10281,-5.3e-4 0.50442,-0.595837 0.89248,-1.322917 0.82664,-1.548836 3.21003,-2.909464 5.09645,-2.909464 1.18235,0 1.0672,0.113066 -2.3678,2.325014 -3.92848,2.529714 -4.6391,3.574071 -2.16245,3.178039 0.79648,-0.127362 1.92701,-0.479201 2.5123,-0.781864 2.74452,-1.419245 6.21872,1.165208 6.98286,5.194544 0.86821,4.578026 -1.61505,10.242081 -5.4846,12.509786 -1.28589,0.753583 -1.89685,0.878907 -3.93157,0.806482 -1.32499,-0.04716 -2.88533,0.01591 -3.46741,0.140119 -0.58209,0.124228 -1.61396,0.05684 -2.29306,-0.149757 z m 1.05833,-24.621692 c -0.67909,-0.36531 -1.9765,-0.768739 -2.88313,-0.896508 -0.90662,-0.12777 -1.92611,-0.435376 -2.26554,-0.683568 -0.58299,-0.426294 -0.57207,-0.566167 0.19735,-2.528288 0.44796,-1.142366 1.59417,-3.747419 2.54713,-5.789008 l 1.73266,-3.711979 3.46252,0.0078 3.46252,0.0078 1.81495,3.569503 c 0.99823,1.963226 2.46461,4.307552 3.25863,5.209613 0.81879,0.930195 1.36023,1.857602 1.25087,2.14258 -0.32611,0.84983 -1.81487,1.609339 -3.80188,1.939571 -1.0433,0.173393 -2.48712,0.565229 -3.2085,0.870746 -1.74047,0.737129 -4.04669,0.679847 -5.56758,-0.13829 z M 182.02382,16.70397 c -0.13208,-1.309687 -0.26377,-2.919579 -0.29266,-3.577537 -0.0689,-1.568959 0.75937,-1.88797 1.05564,-0.40659 0.16727,0.836328 0.52413,1.230362 1.47358,1.627065 1.11356,0.465277 1.37984,0.463213 2.39512,-0.01857 0.78354,-0.371812 1.21502,-0.873279 1.37393,-1.596748 0.13567,-0.61773 0.45816,-1.054706 0.77837,-1.054706 0.46533,0 0.51137,0.380723 0.30925,2.557639 -0.1306,1.406701 -0.32753,3.073576 -0.43762,3.704166 l -0.20016,1.146528 h -3.10766 -3.10766 z"
         id="path4002" />
      <path
         style="fill:#289ee7;stroke-width:0.352778"
         d="m 181.34903,58.655206 c 0.18128,-0.155554 1.36147,-0.484848 2.62265,-0.73176 1.26119,-0.246916 3.12613,-0.842878 4.14432,-1.324367 2.48589,-1.175536 5.47791,-3.974609 6.4438,-6.028252 1.39566,-2.967415 0.89795,-7.309479 -1.03876,-9.062172 -0.49762,-0.450347 -0.83322,-0.494472 -1.58549,-0.208462 -0.52483,0.199543 -1.40072,0.362805 -1.94641,0.362805 -0.5457,0 -1.17823,0.224177 -1.40562,0.498172 -0.2274,0.273994 -1.16421,0.678278 -2.08182,0.898407 -2.0213,0.484903 -4.3838,-0.115506 -4.58599,-1.165493 -0.10899,-0.565997 0.0744,-0.634991 1.4063,-0.529166 1.45647,0.11572 1.5255,0.07857 1.40683,-0.757192 -0.16136,-1.136415 -1.3664,-2.825284 -2.0159,-2.825284 -0.61601,0 -0.65071,-0.418883 -0.0818,-0.987778 1.10112,-1.10112 2.24593,0.263865 2.75163,3.280834 0.16539,0.986682 0.27812,1.056327 1.66516,1.028702 0.81827,-0.0163 2.12774,-0.31822 2.90993,-0.670939 1.36641,-0.616163 1.47674,-0.616701 2.81392,-0.01372 1.70249,0.767716 2.63753,1.727263 3.35391,3.441799 0.68748,1.64537 0.70329,5.280801 0.0326,7.509157 -0.69573,2.311753 -2.73707,5.183678 -4.53334,6.377873 -1.40078,0.93127 -1.72303,0.989224 -6.04263,1.086696 -2.50961,0.05663 -4.41461,-0.02431 -4.23333,-0.179863 z m 0.24753,-24.828373 c -0.54747,-0.264187 -0.73914,-0.606499 -0.6286,-1.122651 0.7155,-3.341013 1.4078,-5.82134 1.83196,-6.563406 0.4654,-0.8142 0.48912,-0.708608 0.30878,1.374666 -0.10744,1.241135 -0.19535,3.265198 -0.19535,4.497916 0,2.352047 -0.0521,2.423776 -1.31679,1.813475 z m 6.42834,-1.778454 c -0.12995,-1.213457 -0.18227,-2.681894 -0.11627,-3.263195 0.104,-0.916011 0.26744,-0.680677 1.22599,1.765314 l 1.10599,2.822222 -0.75322,0.428471 c -1.16069,0.660275 -1.21045,0.600634 -1.46249,-1.752812 z m -3.87683,-17.196492 c -0.73459,-0.81172 -0.3179,-0.923798 0.66578,-0.179074 0.57783,0.43747 0.76293,0.435988 1.40141,-0.01122 1.09968,-0.770247 1.59738,-0.606574 0.57865,0.190292 -1.12828,0.882552 -1.84714,0.882552 -2.64584,0 z"
         id="path4000" />
    </g>
    <rect
       style="opacity:0.671988;fill:url(#linearGradient4571);stroke:none;stroke-width:2.64583;stroke-linecap:round;stroke-linejoin:round;stroke-miterlimit:4;stroke-dasharray:none;stroke-opacity:1;fill-opacity:1"
       id="rect4541"
       width="190.5"
       height="280.45834"
       x="10.583333"
       y="10.583333" />
    <path
       style="fill:none;stroke:url(#linearGradient4151);stroke-width:2.76237;stroke-linecap:butt;stroke-linejoin:miter;stroke-miterlimit:4;stroke-dasharray:none;stroke-opacity:1"
       d="m 1.3840025,267.88026 8.0345995,-8.15833 8.034599,8.15833 8.034599,-8.15833 8.034601,8.15833 8.034599,-8.15833 8.034599,8.15833 8.034598,-8.15833 8.034601,8.15833 8.034598,-8.15833 8.0346,8.15833 8.0346,-8.15833 8.034598,8.15833 8.034596,-8.15833 8.0346,8.15833 8.0346,-8.15833 8.0346,8.15833 8.0346,-8.15833 8.03461,8.15833 8.03459,-8.15833 8.0346,8.15833 8.03461,-8.15833 8.03459,8.15833 8.0346,-8.15833 8.03459,8.15833 8.03461,-8.15833 8.0346,8.15833 V 1.3750459 H 1.3840025 Z"
       id="path929" />
  </g>
</svg>
